<svg width="197" height="273" viewBox="0 0 197 273" fill="none" xmlns="http://www.w3.org/2000/svg">
<path d="M196.976 92.5C196.976 80.3527 194.435 68.3244 189.498 57.1018C184.561 45.8792 177.325 35.682 168.202 27.0926C159.08 18.5032 148.251 11.6897 136.332 7.04114C124.413 2.39258 111.639 -5.30974e-07 98.7378 0C85.837 5.30974e-07 73.0626 2.39258 61.1438 7.04115C49.2251 11.6897 38.3954 18.5032 29.2732 27.0926C20.151 35.682 12.9148 45.8792 7.97791 57.1018C3.04099 68.3244 0.499999 80.3527 0.5 92.5L196.976 92.5Z" fill="url(#paint0_linear_2_15)"/>
<path d="M43.8963 150.622L1.74016 95.4498C-1.29755 91.4741 1.79449 86 7.07784 86H190.464C195.991 86 199.014 91.9259 195.481 95.8352L146.383 150.163C145.409 151.24 144.876 152.597 144.876 153.998V185.739C144.876 188.672 142.57 191.175 139.425 191.657L59.0546 203.978C55.4125 204.537 51.9929 202.206 51.5133 198.839L45.0272 153.293C44.8903 152.332 44.5023 151.416 43.8963 150.622Z" fill="url(#paint1_linear_2_15)"/>
<path d="M136.957 230.632L61.9326 242.368M136.957 208L61.9326 219.735M136.957 253.265L61.9326 265" stroke="url(#paint2_linear_2_15)" stroke-width="15" stroke-linecap="round"/>
<defs>
<linearGradient id="paint0_linear_2_15" x1="98.75" y1="0" x2="98.75" y2="204.061" gradientUnits="userSpaceOnUse">
<stop offset="0.151042" stop-color="#13DDEA"/>
<stop offset="0.505208" stop-color="#1376EA"/>
<stop offset="0.729167" stop-color="#184268" stop-opacity="0.71"/>
<stop offset="1" stop-color="#3113EA" stop-opacity="0"/>
</linearGradient>
<linearGradient id="paint1_linear_2_15" x1="98.75" y1="0" x2="98.75" y2="204.061" gradientUnits="userSpaceOnUse">
<stop offset="0.151042" stop-color="#13DDEA"/>
<stop offset="0.505208" stop-color="#1376EA"/>
<stop offset="0.729167" stop-color="#184268" stop-opacity="0.71"/>
<stop offset="1" stop-color="#3113EA" stop-opacity="0"/>
</linearGradient>
<linearGradient id="paint2_linear_2_15" x1="99.4446" y1="208" x2="99.4446" y2="265" gradientUnits="userSpaceOnUse">
<stop stop-color="#34FF61"/>
<stop offset="0.390625" stop-color="#F92A2A"/>
<stop offset="0.75" stop-color="#F301AF" stop-opacity="0.710085"/>
<stop offset="1" stop-color="#C4C4C4" stop-opacity="0.75"/>
</linearGradient>
</defs>
</svg>
